<?xml version="1.0" standalone="no"?>
<!DOCTYPE svg PUBLIC "-//W3C//DTD SVG 20010904//EN"
 "http://www.w3.org/TR/2001/REC-SVG-20010904/DTD/svg10.dtd">
<svg version="1.0" xmlns="http://www.w3.org/2000/svg"
 width="700.000000pt" height="700.000000pt" viewBox="0 0 700.000000 700.000000"
 preserveAspectRatio="xMidYMid meet">
<metadata>
Created by potrace 1.14, written by Peter Selinger 2001-2017
</metadata>
<g transform="translate(0.000000,700.000000) scale(0.100000,-0.100000)"
fill="#000000" stroke="none">
<path d="M3625 5150 c-809 -907 -1471 -1654 -1473 -1660 -3 -7 254 -10 788
-10 750 0 792 -1 787 -17 -3 -10 -242 -600 -531 -1312 -289 -712 -525 -1296
-523 -1297 3 -3 2941 3296 2945 3308 2 4 -354 9 -791 10 l-794 3 518 1275
c605 1488 550 1350 546 1350 -1 0 -664 -742 -1472 -1650z"/>
<path d="M1505 952 l-601 -757 1267 -3 c697 -1 1841 -1 2542 0 l1275 3 -601
757 -601 758 -476 0 -476 0 -152 -172 -152 -173 539 -3 540 -2 318 -400 c175
-219 319 -404 321 -410 3 -7 -559 -10 -1802 -10 -993 0 -1806 3 -1806 6 0 3
145 187 322 410 l321 404 137 0 136 0 71 175 71 175 -296 0 -297 -1 -600 -757z"/>
</g>
</svg>
