<svg width="34" height="34" viewBox="0 0 34 34" fill="none" xmlns="http://www.w3.org/2000/svg">
<path fill-rule="evenodd" clip-rule="evenodd" d="M8.75 19V24C8.75 24.6904 9.30964 25.25 10 25.25H15V26.75H10C8.48122 26.75 7.25 25.5188 7.25 24V19H8.75Z" fill="#212529"/>
<path fill-rule="evenodd" clip-rule="evenodd" d="M25.25 15L25.25 10C25.25 9.30964 24.6904 8.75 24 8.75L19 8.75L19 7.25L24 7.25C25.5188 7.25 26.75 8.48122 26.75 10L26.75 15L25.25 15Z" fill="#212529"/>
<path fill-rule="evenodd" clip-rule="evenodd" d="M25.25 19V24C25.25 24.6904 24.6904 25.25 24 25.25H19V26.75H24C25.5188 26.75 26.75 25.5188 26.75 24V19H25.25Z" fill="#212529"/>
<path fill-rule="evenodd" clip-rule="evenodd" d="M8.75 15L8.75 10C8.75 9.30964 9.30964 8.75 10 8.75L15 8.75L15 7.25L10 7.25C8.48122 7.25 7.25 8.48122 7.25 10L7.25 15L8.75 15Z" fill="#212529"/>
<path fill-rule="evenodd" clip-rule="evenodd" d="M11.25 11.25H22.75V22.75H11.25V11.25ZM12.75 12.75V21.25H21.25V12.75H12.75Z" fill="#212529"/>
</svg>
