<svg width="16" height="11" viewBox="0 0 16 11" fill="none" xmlns="http://www.w3.org/2000/svg">
  <path fill-rule="evenodd" clip-rule="evenodd" d="M0.000130653 8.11899V2.21427C0.000130653 0.991255 0.991385 0 2.2144 0H10.2087C10.8464 0 11.4523 0.274572 11.873 0.75433C12.5004 1.46954 13.6637 2.79515 14.463 3.70669C15.1959 4.54221 15.1959 5.79105 14.463 6.62657C13.6637 7.53811 12.5004 8.86372 11.873 9.57893C11.4523 10.0587 10.8464 10.3333 10.2087 10.3333H2.2144C0.991385 10.3333 0.000130653 9.342 0.000130653 8.11899ZM1.47631 2.21427V8.11899C1.47631 8.52642 1.80697 8.85708 2.2144 8.85708H10.2087C10.4212 8.85708 10.6235 8.76555 10.7637 8.60539L13.3529 5.65303C13.5972 5.37477 13.5972 4.95849 13.3529 4.68023L10.7637 1.72787C10.6235 1.56771 10.4212 1.47618 10.2087 1.47618H2.2144C1.80697 1.47618 1.47631 1.80684 1.47631 2.21427ZM7.6866 5.16663L8.64095 6.12098C8.9288 6.40883 8.9288 6.87678 8.64095 7.16464C8.35309 7.4525 7.88515 7.4525 7.59729 7.16464L6.64294 6.21029L5.68859 7.16464C5.40073 7.4525 4.93279 7.4525 4.64493 7.16464C4.35708 6.87678 4.35708 6.40883 4.64493 6.12098L5.59928 5.16663L4.64493 4.21228C4.35708 3.92442 4.35708 3.45647 4.64493 3.16862C4.93279 2.88076 5.40073 2.88076 5.68859 3.16862L6.64294 4.12297L7.59729 3.16862C7.88515 2.88076 8.35309 2.88076 8.64095 3.16862C8.9288 3.45647 8.9288 3.92442 8.64095 4.21228L7.6866 5.16663Z" fill="white" />
</svg>