<svg width="34" height="34" viewBox="0 0 34 34" fill="none" xmlns="http://www.w3.org/2000/svg">
<path fill-rule="evenodd" clip-rule="evenodd" d="M17.1111 11.8055C17.436 11.8055 17.724 12.0148 17.8244 12.3238L18.7536 15.1837H21.7607C22.0856 15.1837 22.3736 15.3929 22.474 15.7019C22.5744 16.0109 22.4644 16.3495 22.2015 16.5404L19.7688 18.308L20.698 21.1679C20.7984 21.4769 20.6884 21.8154 20.4255 22.0064C20.1627 22.1974 19.8067 22.1974 19.5439 22.0064L17.1111 20.2389L14.6783 22.0064C14.4154 22.1974 14.0595 22.1974 13.7966 22.0064C13.5338 21.8154 13.4238 21.4769 13.5242 21.1679L14.4534 18.308L12.0206 16.5404C11.7578 16.3495 11.6478 16.0109 11.7482 15.7019C11.8486 15.3929 12.1366 15.1837 12.4615 15.1837H15.4686L16.3978 12.3238C16.4982 12.0148 16.7862 11.8055 17.1111 11.8055ZM17.1111 14.9826L16.7268 16.1654C16.6263 16.4745 16.3384 16.6837 16.0135 16.6837H14.7697L15.7759 17.4147C16.0388 17.6057 16.1488 17.9442 16.0484 18.2532L15.6641 19.4361L16.6702 18.7051C16.9331 18.5141 17.2891 18.5141 17.5519 18.7051L18.5581 19.4361L18.1738 18.2532C18.0734 17.9442 18.1834 17.6057 18.4462 17.4147L19.4524 16.6837H18.2087C17.8838 16.6837 17.5958 16.4745 17.4954 16.1654L17.1111 14.9826Z" fill="#212529"/>
<path fill-rule="evenodd" clip-rule="evenodd" d="M5.25 12C5.25 9.92893 6.92893 8.25 9 8.25H25.2222C27.2933 8.25 28.9722 9.92893 28.9722 12V22C28.9722 24.0711 27.2933 25.75 25.2222 25.75H9C6.92893 25.75 5.25 24.0711 5.25 22V12ZM9 9.75C7.75736 9.75 6.75 10.7574 6.75 12V22C6.75 23.2426 7.75736 24.25 9 24.25H25.2222C26.4649 24.25 27.4722 23.2426 27.4722 22V12C27.4722 10.7574 26.4649 9.75 25.2222 9.75H9Z" fill="#212529"/>
</svg>
