<svg width="34" height="34" viewBox="0 0 34 34" fill="none" xmlns="http://www.w3.org/2000/svg">
<path d="M10.75 10.75H19.75" stroke="white" stroke-width="1.5" stroke-linejoin="round"/>
<path d="M10.75 15.75H19.75" stroke="white" stroke-width="1.5" stroke-linejoin="round"/>
<path d="M10.75 20.75H15.75" stroke="white" stroke-width="1.5" stroke-linejoin="round"/>
<path fill-rule="evenodd" clip-rule="evenodd" d="M7 7.75C7 6.23122 8.23122 5 9.75 5H20.75C22.2688 5 23.5 6.23122 23.5 7.75V17.7556C26.4215 17.8863 28.75 20.2962 28.75 23.25C28.75 26.2876 26.2876 28.75 23.25 28.75C21.4282 28.75 19.8134 27.8643 18.8125 26.5H9.75C8.23122 26.5 7 25.2688 7 23.75V7.75ZM18.0343 25C17.8499 24.4503 17.75 23.8618 17.75 23.25C17.75 20.6424 19.5646 18.4587 22 17.8927V7.75C22 7.05964 21.4404 6.5 20.75 6.5H9.75C9.05964 6.5 8.5 7.05964 8.5 7.75V23.75C8.5 24.4404 9.05964 25 9.75 25H18.0343ZM20.8141 22.6397L24.3141 20.1397L25.1859 21.3603L22.5403 23.25L25.1859 25.1397L24.3141 26.3603L20.8141 23.8603C20.617 23.7195 20.5 23.4922 20.5 23.25C20.5 23.0078 20.617 22.7805 20.8141 22.6397Z" fill="white"/>
</svg>
