<svg width="34" height="34" viewBox="0 0 34 34" fill="none" xmlns="http://www.w3.org/2000/svg">
<path fill-rule="evenodd" clip-rule="evenodd" d="M10.36 14.0196C8.84793 13.4804 7.18497 14.269 6.64572 15.7811C6.10646 17.2932 6.89511 18.9562 8.40722 19.4955C9.91933 20.0347 11.5823 19.2461 12.1215 17.734C12.6608 16.2218 11.8721 14.5589 10.36 14.0196ZM5.23287 15.2773C6.0504 12.9849 8.57149 11.7893 10.8639 12.6068C13.1563 13.4243 14.3519 15.9454 13.5344 18.2378C12.7169 20.5302 10.1958 21.7258 7.90337 20.9083C5.61097 20.0908 4.41534 17.5697 5.23287 15.2773Z" fill="#212529"/>
<path fill-rule="evenodd" clip-rule="evenodd" d="M21.5317 21.8857C20.0196 21.3465 18.3566 22.1351 17.8173 23.6472C17.2781 25.1593 18.0667 26.8223 19.5789 27.3616C21.091 27.9008 22.7539 27.1122 23.2932 25.6C23.8324 24.0879 23.0438 22.425 21.5317 21.8857ZM16.4045 23.1434C17.222 20.851 19.7431 19.6554 22.0355 20.4729C24.3279 21.2904 25.5235 23.8115 24.706 26.1039C23.8885 28.3963 21.3674 29.5919 19.075 28.7744C16.7826 27.9569 15.587 25.4358 16.4045 23.1434Z" fill="#212529"/>
<path fill-rule="evenodd" clip-rule="evenodd" d="M22.7548 7.56907C21.2427 7.02982 19.5797 7.81847 19.0405 9.33058C18.5012 10.8427 19.2899 12.5056 20.802 13.0449C22.3141 13.5842 23.9771 12.7955 24.5163 11.2834C25.0556 9.77129 24.2669 8.10833 22.7548 7.56907ZM17.6276 8.82672C18.4452 6.53432 20.9663 5.3387 23.2587 6.15623C25.5511 6.97375 26.7467 9.49485 25.9292 11.7872C25.1116 14.0796 22.5905 15.2753 20.2981 14.4577C18.0057 13.6402 16.8101 11.1191 17.6276 8.82672Z" fill="#212529"/>
<path fill-rule="evenodd" clip-rule="evenodd" d="M19.0774 12.9897L13.3474 15.9934L12.651 14.6648L18.381 11.6612L19.0774 12.9897Z" fill="#212529"/>
<path fill-rule="evenodd" clip-rule="evenodd" d="M17.1739 23.6891L11.921 19.9124L12.7967 18.6945L18.0495 22.4712L17.1739 23.6891Z" fill="#212529"/>
</svg>
