<svg width="34" height="34" viewBox="0 0 34 34" fill="none" xmlns="http://www.w3.org/2000/svg">
<circle cx="21.75" cy="21.75" r="8" stroke="#212529" stroke-width="1.5"/>
<circle cx="21.75" cy="21.75" r="8" stroke="white" stroke-width="1.5"/>
<path fill-rule="evenodd" clip-rule="evenodd" d="M7.75 4C6.23122 4 5 5.23122 5 6.75V21.75C5 23.2688 6.23122 24.5 7.75 24.5H14.2352C14.0594 24.0199 13.9284 23.5182 13.8471 23H7.75C7.05964 23 6.5 22.4404 6.5 21.75V6.75C6.5 6.05964 7.05964 5.5 7.75 5.5H17.75C18.4404 5.5 19 6.05964 19 6.75V14.2352C19.4801 14.0594 19.9818 13.9284 20.5 13.8471V6.75C20.5 5.23122 19.2688 4 17.75 4H7.75Z" fill="white"/>
<path d="M21.7976 17.75V25.75" stroke="white" stroke-width="1.5"/>
<path d="M17.75 21.5595H25.8452" stroke="white" stroke-width="1.5"/>
</svg>
