<svg width="34" height="34" viewBox="0 0 34 34" fill="none" xmlns="http://www.w3.org/2000/svg">
  <path fill-rule="evenodd" clip-rule="evenodd" d="M8.25 9C8.25 7.48122 9.48122 6.25 11 6.25H23C24.5188 6.25 25.75 7.48122 25.75 9V26.3503C25.75 28.7646 22.8614 30.0071 21.1087 28.3466L17.8597 25.2686C17.3776 24.8119 16.6224 24.8119 16.1403 25.2686L12.8913 28.3466C11.1386 30.0071 8.25 28.7646 8.25 26.3503V9ZM11 7.75C10.3096 7.75 9.75 8.30964 9.75 9V26.3503C9.75 27.4477 11.063 28.0124 11.8597 27.2577L15.1087 24.1797C16.1694 23.1748 17.8306 23.1748 18.8913 24.1797L22.1403 27.2577C22.937 28.0124 24.25 27.4477 24.25 26.3503V9C24.25 8.30964 23.6904 7.75 23 7.75H11Z" fill="white" />
</svg>