<svg width="34" height="34" viewBox="0 0 34 34" fill="none" xmlns="http://www.w3.org/2000/svg">
  <path d="M27.3446 14.1517L26.3792 14.9463C25.2781 15.8528 25.2781 17.5389 26.3792 18.4454L27.3446 19.2401C27.6866 19.5217 27.775 20.0094 27.5534 20.3931L25.6474 23.6945C25.4258 24.0783 24.9593 24.2456 24.5444 24.0902L23.3735 23.6515C22.0379 23.1512 20.5777 23.9942 20.3432 25.401L20.1377 26.6344C20.0648 27.0714 19.6867 27.3918 19.2436 27.3918H15.4313C14.9883 27.3918 14.6101 27.0714 14.5373 26.6344L14.3317 25.401C14.0972 23.9942 12.637 23.1512 11.3014 23.6515L10.1306 24.0902C9.71564 24.2456 9.24915 24.0783 9.02757 23.6945L7.12148 20.3931C6.89995 20.0094 6.98828 19.5217 7.33037 19.2401L8.29572 18.4454C9.39681 17.5389 9.39681 15.8528 8.29572 14.9463L7.33037 14.1517C6.98828 13.8701 6.89995 13.3824 7.12148 12.9987L9.02757 9.6972C9.24915 9.31347 9.71564 9.14614 10.1306 9.30159L11.3014 9.74021C12.637 10.2406 14.0972 9.39754 14.3317 7.99071L14.5373 6.75737C14.6101 6.32034 14.9883 6.00001 15.4313 6.00001H19.2436C19.6867 6.00001 20.0648 6.32034 20.1377 6.75737L20.3432 7.99071C20.5777 9.39754 22.0379 10.2406 23.3735 9.74021L24.5444 9.30159C24.9593 9.14614 25.4258 9.31347 25.6474 9.6972L27.5534 12.9987C27.775 13.3824 27.6866 13.8701 27.3446 14.1517Z" stroke="white" stroke-width="1.5" stroke-miterlimit="10" stroke-linecap="round" stroke-linejoin="round" />
  <path fill-rule="evenodd" clip-rule="evenodd" d="M17.3375 19.5112C15.7827 19.5112 14.5222 18.2507 14.5222 16.6959C14.5222 15.141 15.7827 13.8806 17.3375 13.8806C18.8924 13.8806 20.1528 15.141 20.1528 16.6959C20.1528 18.2507 18.8924 19.5112 17.3375 19.5112ZM13.0222 16.6959C13.0222 19.0792 14.9543 21.0112 17.3375 21.0112C19.7208 21.0112 21.6528 19.0792 21.6528 16.6959C21.6528 14.3126 19.7208 12.3806 17.3375 12.3806C14.9543 12.3806 13.0222 14.3126 13.0222 16.6959Z" fill="white" />
</svg>